<svg width="42" height="30" viewBox="0 0 42 30" fill="none" xmlns="http://www.w3.org/2000/svg">
	<path d="M3 7.87908C3 5.56953 4.89621 3.69727 7.23529 3.69727H34.7647C37.1038 3.69727 39 5.56953 39 7.87908V22.5154C39 24.825 37.1038 26.6973 34.7647 26.6973H7.23529C4.89621 26.6973 3 24.825 3 22.5154V7.87908Z" fill="#2666AC"/>
	<path d="M7.23529 2.19727C4.08581 2.19727 1.5 4.72319 1.5 7.87908V22.5154C1.5 25.6713 4.0858 28.1973 7.23529 28.1973H34.7647C37.9142 28.1973 40.5 25.6713 40.5 22.5154V7.87908C40.5 4.72319 37.9142 2.19727 34.7647 2.19727H7.23529Z" stroke="black" stroke-opacity="0.1" stroke-width="3"/>
	<path d="M7.5332 11.0655H9.2083L10.84 17.571L14.3701 11.0655H16.2127L11.3301 20.0764H9.79768L7.5332 11.0655Z" fill="white"/>
	<path d="M17.3666 11.0655H19.0417L17.7823 20.0764H16.1382L17.3666 11.0655Z" fill="white"/>
	<path d="M25.649 12.3213L24.402 13.4117C23.8891 12.7583 23.4114 12.4316 22.9689 12.4316C22.7497 12.4316 22.5677 12.4969 22.4229 12.6276C22.2781 12.7542 22.2058 12.9073 22.2058 13.087C22.2058 13.2544 22.2719 13.4403 22.4043 13.6444C22.5367 13.8486 22.9378 14.2999 23.6079 14.9982C23.9636 15.3699 24.1973 15.6333 24.3089 15.7884C24.5778 16.1478 24.7701 16.4847 24.8859 16.7992C25.0059 17.1096 25.0658 17.426 25.0658 17.7487C25.0658 18.4715 24.8053 19.0779 24.2841 19.568C23.763 20.0581 23.095 20.3031 22.2802 20.3031C21.0394 20.3031 20.0281 19.7211 19.2464 18.5573L20.5617 17.5098C21.0911 18.3061 21.6639 18.7043 22.2802 18.7043C22.5739 18.7043 22.82 18.6104 23.0185 18.4225C23.2212 18.2346 23.3225 18.008 23.3225 17.7425C23.3225 17.5343 23.2605 17.3219 23.1364 17.1055C23.0164 16.889 22.669 16.4806 22.0941 15.8803C21.4861 15.2473 21.087 14.7695 20.8967 14.4469C20.6403 14.0099 20.5121 13.5811 20.5121 13.1605C20.5121 12.6051 20.6961 12.1069 21.0642 11.6658C21.5275 11.1145 22.152 10.8389 22.9378 10.8389C24.0173 10.8389 24.9211 11.333 25.649 12.3213Z" fill="white"/>
	<path d="M30.7301 11.0655H32.1757L34.4463 20.0764H32.7837L32.2997 18.1591H28.6952L27.6467 20.0764H25.8041L30.7301 11.0655ZM31.8841 16.5664L31.152 13.6077L29.5452 16.5664H31.8841Z" fill="white"/>
	<path d="M5.11719 11.0156H9.17601L9.70542 13.1065L5.11719 11.0156Z" fill="#EEA84D"/>
</svg>