<svg width="42" height="30" viewBox="0 0 42 30" fill="none" xmlns="http://www.w3.org/2000/svg">
	<path d="M3 7.87908C3 5.56953 4.89621 3.69727 7.23529 3.69727H34.7647C37.1038 3.69727 39 5.56953 39 7.87908V22.5154C39 24.825 37.1038 26.6973 34.7647 26.6973H7.23529C4.89621 26.6973 3 24.825 3 22.5154V7.87908Z" fill="#26365F"/>
	<path d="M7.23529 2.19727C4.08581 2.19727 1.5 4.72319 1.5 7.87908V22.5154C1.5 25.6713 4.0858 28.1973 7.23529 28.1973H34.7647C37.9142 28.1973 40.5 25.6713 40.5 22.5154V7.87908C40.5 4.72319 37.9142 2.19727 34.7647 2.19727H7.23529Z" stroke="black" stroke-opacity="0.1" stroke-width="3"/>
	<path d="M23.2328 8.11816L17.5399 8.74272L15.0098 16.862L18.4888 22.483L23.2328 22.1707L27.6606 18.4233L23.2328 8.11816Z" fill="#FF5C00"/>
	<path fill-rule="evenodd" clip-rule="evenodd" d="M21.3346 8.26784C18.8767 9.67169 17.223 12.2956 17.223 15.3009C17.223 18.3061 18.8767 20.9301 21.3346 22.3339C20.1251 23.0247 18.7208 23.4201 17.2231 23.4201C12.6816 23.4201 9 19.785 9 15.3009C9 10.8167 12.6816 7.18164 17.2231 7.18164C18.7208 7.18164 20.1251 7.57702 21.3346 8.26784Z" fill="#FC0101"/>
	<path fill-rule="evenodd" clip-rule="evenodd" d="M21.0189 8.26785C23.4768 9.67171 25.1305 12.2956 25.1305 15.3009C25.1305 18.3061 23.4768 20.93 21.0189 22.3339C22.2284 23.0247 23.6327 23.4201 25.1305 23.4201C29.6719 23.4201 33.3535 19.785 33.3535 15.3009C33.3535 10.8167 29.6719 7.18164 25.1305 7.18164C23.6327 7.18164 22.2284 7.57702 21.0189 8.26785Z" fill="#FCD401"/>
</svg>