<svg width="138" height="142" viewBox="0 0 138 142" fill="none" xmlns="http://www.w3.org/2000/svg">
<g clip-path="url(#clip0_703_220)">
<path d="M130.61 6.71898V97.7051H99.9822V66.9098C99.9817 65.688 99.648 64.4894 99.0171 63.4431C98.3862 62.3967 97.4819 61.5422 96.4015 60.9715C95.3212 60.4008 94.1056 60.1355 92.8857 60.2041C91.6658 60.2727 90.4877 60.6728 89.4782 61.3611L68.6773 75.5605L47.9605 61.4898C46.9503 60.8041 45.7723 60.4065 44.5531 60.3399C43.3339 60.2733 42.1197 60.5402 41.0408 61.1119C39.9619 61.6836 39.0591 62.5384 38.4296 63.5846C37.8 64.6308 37.4675 65.8288 37.4677 67.0498V97.8451H6.86833V6.85896H43.1004L64.7691 22.587C65.9178 23.4227 67.3016 23.8728 68.7221 23.8728C70.1426 23.8728 71.5265 23.4227 72.6751 22.587L94.4166 6.73017H130.61V6.71898ZM132.849 0.0111921H93.6048C92.6842 0.0115196 91.7877 0.305763 91.0459 0.851064L68.6886 17.1558L46.3983 0.985456C45.6607 0.445188 44.7706 0.153052 43.8563 0.151171H4.62867C3.41036 0.181972 2.25411 0.695308 1.41415 1.57831C0.57419 2.46132 0.119274 3.64173 0.149351 4.86006V99.8384C0.119274 101.057 0.57419 102.237 1.41415 103.12C2.25411 104.003 3.41036 104.516 4.62867 104.547H39.7297C40.9475 104.515 42.1029 104.001 42.9426 103.119C43.7822 102.236 44.2376 101.056 44.209 99.8384V67.0498L66.1857 81.9771C66.9213 82.5019 67.8017 82.7856 68.7053 82.789C69.6127 82.7876 70.4965 82.4995 71.2305 81.9659L93.2856 66.9098V99.7152C93.257 100.933 93.7124 102.113 94.5521 102.995C95.3917 103.878 96.5471 104.392 97.7649 104.424H132.849C134.067 104.393 135.224 103.88 136.064 102.997C136.904 102.114 137.359 100.934 137.328 99.7152V4.70889C137.359 3.49056 136.904 2.31013 136.064 1.42713C135.224 0.54412 134.067 0.0308014 132.849 0V0.0111921Z" fill="#FBFBFC"/>
<path d="M57.2998 93.0858L64.9091 98.5506C66.0514 99.371 67.4222 99.8122 68.8285 99.8122C70.2348 99.8122 71.6057 99.371 72.7479 98.5506L80.1276 93.1978V110.813C80.1276 112.595 80.8355 114.304 82.0955 115.564C83.3556 116.824 85.0646 117.532 86.8465 117.532H130.61V135.175L6.86833 135.303V117.509H50.6089C52.3909 117.509 54.0998 116.801 55.3599 115.541C56.6199 114.281 57.3279 112.572 57.3279 110.79V93.0858H57.2998ZM54.6235 83.7521C54.083 83.7637 53.5502 83.8819 53.0556 84.1001C52.561 84.3182 52.1143 84.6319 51.7413 85.0232C51.3682 85.4144 51.0762 85.8755 50.8819 86.3799C50.6875 86.8844 50.5947 87.4222 50.6089 87.9626V110.79H4.62867C3.41036 110.821 2.25411 111.334 1.41415 112.217C0.57419 113.1 0.119274 114.281 0.149351 115.499V137.297C0.12078 138.514 0.576401 139.693 1.4162 140.575C2.256 141.457 3.41135 141.969 4.62867 142L132.849 141.871C134.067 141.839 135.222 141.325 136.062 140.442C136.902 139.56 137.357 138.38 137.328 137.162V115.516C137.359 114.298 136.904 113.117 136.064 112.234C135.224 111.351 134.067 110.838 132.849 110.807H86.869V88.013C86.8831 87.4726 86.7903 86.9348 86.596 86.4303C86.4017 85.9259 86.1096 85.4648 85.7366 85.0735C85.3635 84.6823 84.9169 84.3686 84.4223 84.1505C83.9277 83.9324 83.3948 83.8141 82.8544 83.8024C82.0472 83.8092 81.263 84.0719 80.6147 84.5527L68.8565 93.0915L56.8744 84.4912C56.2241 84.0153 55.4404 83.7567 54.6347 83.7521H54.6235Z" fill="#FBFBFC"/>
</g>
<defs>
<clipPath id="clip0_703_220">
<rect width="137.207" height="142" fill="white" transform="translate(0.121338)"/>
</clipPath>
</defs>
</svg>
